<svg xmlns="http://www.w3.org/2000/svg" viewBox="0 0 64 64" fill="none">
  <rect width="64" height="64" rx="14" fill="#2456E5"></rect>
  <circle cx="32" cy="32" r="22" fill="#FF8C00" opacity="0.18"></circle>
  <g stroke="#FFFFFF" stroke-width="2.5" stroke-linecap="round">
    <path d="M32.00 18.00 L32.00 8.00"></path>
    <path d="M39.00 19.88 L44.00 11.22"></path>
    <path d="M44.12 25.00 L52.78 20.00"></path>
    <path d="M46.00 32.00 L56.00 32.00"></path>
    <path d="M44.12 39.00 L52.78 44.00"></path>
    <path d="M39.00 44.12 L44.00 52.78"></path>
    <path d="M32.00 46.00 L32.00 56.00"></path>
    <path d="M25.00 44.12 L20.00 52.78"></path>
    <path d="M19.88 39.00 L11.22 44.00"></path>
    <path d="M18.00 32.00 L8.00 32.00"></path>
    <path d="M19.88 25.00 L11.22 20.00"></path>
    <path d="M25.00 19.88 L20.00 11.22"></path>
  </g>
  <circle cx="32" cy="32" r="9.5" fill="#FF8C00"></circle>
  <circle cx="29.5" cy="29.5" r="2.5" fill="#FFFFFF" opacity="0.3"></circle>
</svg>